<svg xmlns="http://www.w3.org/2000/svg" width="59.49" height="24.94" viewBox="0 0 59.49 24.94">
  <g id="Group_4435" data-name="Group 4435" transform="translate(-1535.51 -7028.132)">
    <path id="Path_1230" data-name="Path 1230" d="M24.037,13.54c-.662-2.479-2.829-3.449-5.224-2.164-2.4-1.285-4.563-.314-5.225,2.164-2.478.661-3.448,2.829-2.164,5.224-1.285,2.4-.314,4.563,2.164,5.225a3.677,3.677,0,0,0,1.663,2.343v8.4h7.122v-8.4a3.674,3.674,0,0,0,1.663-2.343c2.478-.661,3.448-2.829,2.164-5.225C27.485,16.368,26.515,14.2,24.037,13.54Z" transform="translate(1525.165 7017.836)" fill="none" stroke="#fff" stroke-miterlimit="10" stroke-width="1"/>
    <g id="Group_4434" data-name="Group 4434">
      <path id="Path_718" data-name="Path 718" d="M66.605,19.567a1.6,1.6,0,0,0,1.708,1.324c.353,0,.788-.192.788-.606,0-.99-3.183-.425-3.183-2.234a1.676,1.676,0,0,1,1.849-1.515,2.687,2.687,0,0,1,1.485.5l.2-.344h.556v1.687h-.657a1.441,1.441,0,0,0-1.5-1.111c-.333,0-.768.141-.768.546,0,.788,3.184.414,3.184,2.263,0,1.061-.9,1.495-1.849,1.495a2.469,2.469,0,0,1-1.687-.514l-.2.364h-.667V19.567Z" transform="translate(1491.417 7014.073)" fill="#fff"/>
      <path id="Path_719" data-name="Path 719" d="M81.205,17.516h.02a1.735,1.735,0,0,1,1.586-.981c1.405,0,2,1.274,2,2.517s-.6,2.514-2,2.514a1.835,1.835,0,0,1-1.567-.868h-.029v1.747c0,.3.091.445.4.445h.636v.667h-3.2v-.667h.557c.313,0,.4-.141.4-.445V17.8c0-.3-.092-.445-.4-.445h-.525v-.667h2.122Zm.029,1.536c0,1.161.506,1.727,1.183,1.727.575,0,1.039-.6,1.039-1.727,0-1.294-.485-1.728-1.039-1.728C81.74,17.324,81.234,17.889,81.234,19.052Z" transform="translate(1482.755 7014.073)" fill="#fff"/>
      <path id="Path_720" data-name="Path 720" d="M97.087,17.7v-.667h.465c.283,0,.4-.111.4-.4V14.04c0-.293-.121-.4-.4-.4h-.465v-.667h2.062v3.658c0,.293.121.4.4.4h.5V17.7Zm1.334-6.821a.728.728,0,1,1-.728.728A.732.732,0,0,1,98.421,10.877Z" transform="translate(1470.905 7017.791)" fill="#fff"/>
      <path id="Path_721" data-name="Path 721" d="M110.777,19.476a1.976,1.976,0,0,1-2.173,2.091,2.2,2.2,0,0,1-2.376-2.525,2.472,2.472,0,0,1,2.5-2.507c1.173,0,2.082.636,2.082,1.486a.778.778,0,0,1-.728.838c-.353,0-.787-.182-.787-.606a.58.58,0,0,1,.6-.657,1.127,1.127,0,0,0-.959-.394c-1.051,0-1.344.99-1.344,1.758s.252,1.759,1.3,1.759c.606,0,1.031-.515,1.1-1.243Z" transform="translate(1464.898 7014.073)" fill="#fff"/>
      <path id="Path_722" data-name="Path 722" d="M120.6,16.978h2.921v.667h-.436c-.17,0-.292.071-.292.222a1.1,1.1,0,0,0,.092.283l.91,2.141h.019l.84-2.05a.954.954,0,0,0,.09-.354c0-.131-.141-.242-.323-.242h-.435v-.667h2.434v.667a.766.766,0,0,0-.827.455l-1.638,3.89c-.556,1.324-1.082,1.859-2.022,1.859a1.236,1.236,0,0,1-1.343-1.223.79.79,0,0,1,.776-.889.666.666,0,0,1,.7.636.544.544,0,0,1-.5.576c-.08,0-.181-.01-.262-.01a.526.526,0,0,0,.5.242,1.1,1.1,0,0,0,1.09-.738l.333-.737-1.708-3.668c-.12-.263-.4-.394-.92-.394Z" transform="translate(1455.462 7013.782)" fill="#fff"/>
      <path id="Path_723" data-name="Path 723" d="M66.768,38.471h.02a1.7,1.7,0,0,1,1.344-.778,2.122,2.122,0,0,1,2.062,2.4c0,1.678-.707,2.637-2.1,2.637a1.766,1.766,0,0,1-1.506-.7l-.374.546h-.636V36.946c0-.293-.122-.4-.4-.4h-.394v-.668h1.99Zm1.031.012c-.676,0-1.04.566-1.04,1.727,0,1.234.222,1.727,1.04,1.727.677,0,1.041-.565,1.041-1.727C68.84,38.977,68.618,38.482,67.8,38.482Z" transform="translate(1492.134 7001.365)" fill="#fff"/>
      <path id="Path_724" data-name="Path 724" d="M83.759,42.094h.02c.4-.605.718-.92,1.263-.92a1.112,1.112,0,0,1,1.222,1.114.776.776,0,0,1-.766.848.651.651,0,0,1-.718-.647.617.617,0,0,1,.666-.606.543.543,0,0,0-.424-.141A1.413,1.413,0,0,0,83.77,43.3v1.688c0,.292.122.4.4.4h.636v.666H81.617v-.666h.556c.283,0,.4-.112.4-.4V42.4c0-.293-.121-.4-.4-.4h-.556v-.666h2.142Z" transform="translate(1481.069 6997.884)" fill="#fff"/>
      <path id="Path_725" data-name="Path 725" d="M98.66,41.174a2.518,2.518,0,1,1-2.6,2.517A2.388,2.388,0,0,1,98.66,41.174Zm0,4.367c.818,0,1.242-.637,1.242-1.849s-.425-1.849-1.242-1.849-1.243.637-1.243,1.849S97.841,45.541,98.66,45.541Z" transform="translate(1471.578 6997.884)" fill="#fff"/>
      <path id="Path_726" data-name="Path 726" d="M117,44.116a1.976,1.976,0,0,1-2.173,2.092,2.2,2.2,0,0,1-2.376-2.526,2.472,2.472,0,0,1,2.5-2.507c1.172,0,2.081.638,2.081,1.487a.779.779,0,0,1-.728.838c-.353,0-.788-.182-.788-.606a.581.581,0,0,1,.6-.658,1.127,1.127,0,0,0-.959-.394c-1.051,0-1.345.991-1.345,1.759s.254,1.758,1.306,1.758c.6,0,1.029-.515,1.1-1.242Z" transform="translate(1460.812 6997.884)" fill="#fff"/>
      <path id="Path_727" data-name="Path 727" d="M131.605,44.116a1.974,1.974,0,0,1-2.171,2.092,2.2,2.2,0,0,1-2.376-2.526,2.472,2.472,0,0,1,2.5-2.507c1.174,0,2.082.638,2.082,1.487a.779.779,0,0,1-.729.838c-.353,0-.788-.182-.788-.606a.581.581,0,0,1,.6-.658,1.128,1.128,0,0,0-.959-.394c-1.05,0-1.344.991-1.344,1.759s.253,1.758,1.3,1.758c.607,0,1.029-.515,1.1-1.242Z" transform="translate(1451.212 6997.884)" fill="#fff"/>
      <path id="Path_728" data-name="Path 728" d="M144.28,41.174a2.518,2.518,0,1,1-2.6,2.517A2.388,2.388,0,0,1,144.28,41.174Zm0,4.367c.819,0,1.242-.637,1.242-1.849s-.423-1.849-1.242-1.849-1.242.637-1.242,1.849S143.462,45.541,144.28,45.541Z" transform="translate(1441.602 6997.884)" fill="#fff"/>
      <path id="Path_729" data-name="Path 729" d="M157.37,42.574v-.666h.495c.283,0,.4-.112.4-.4V36.946c0-.293-.121-.4-.4-.4h-.495v-.668h2.092V41.5c0,.292.121.4.4.4h.476v.666Z" transform="translate(1431.295 7001.365)" fill="#fff"/>
      <path id="Path_730" data-name="Path 730" d="M167.206,42.34v-.666h.465c.284,0,.4-.112.4-.4V38.682c0-.293-.12-.4-.4-.4h-.465v-.666h2.061v3.658c0,.292.122.4.4.4h.5v.666Zm1.334-6.821a.728.728,0,1,1-.726.727A.73.73,0,0,1,168.54,35.519Z" transform="translate(1424.832 7001.6)" fill="#fff"/>
      <path id="Path_731" data-name="Path 731" d="M67.657,64.567h.02a1.745,1.745,0,0,1,1.607-1.01,1.274,1.274,0,0,1,1.344.96,1.963,1.963,0,0,1,1.678-.96,1.347,1.347,0,0,1,1.4,1.425v2.384c0,.294.121.4.4.4h.535v.668H71.821V67.77h.294c.283,0,.4-.11.4-.4V64.982a.649.649,0,0,0-.717-.636,1.178,1.178,0,0,0-1.122,1.2v1.818c0,.294.122.4.4.4h.274v.668H68.779V67.77h.3c.282,0,.4-.11.4-.4V65.244c0-.525-.1-.9-.708-.9a1.206,1.206,0,0,0-1.131,1.2v1.818c0,.294.121.4.4.4h.3v.668h-2.87V67.77h.565c.283,0,.4-.11.4-.4V64.779c0-.292-.122-.4-.4-.4h-.565v-.668h2.172Z" transform="translate(1491.669 6983.176)" fill="#fff"/>
      <path id="Path_732" data-name="Path 732" d="M94.156,66.194c-.032.788.212,1.637,1.152,1.637a1.133,1.133,0,0,0,1.223-1.071h.838A1.926,1.926,0,0,1,95.2,68.589,2.2,2.2,0,0,1,92.8,66.072a2.324,2.324,0,0,1,2.344-2.515,2.3,2.3,0,0,1,2.243,2.637Zm1.879-.666c.011-.636-.191-1.263-.909-1.263-.688,0-.939.628-.969,1.263Z" transform="translate(1473.72 6983.176)" fill="#fff"/>
      <path id="Path_733" data-name="Path 733" d="M111.16,64.124h-.019a1.736,1.736,0,0,1-1.587.98c-1.4,0-2-1.273-2-2.516a2.282,2.282,0,0,1,2-2.515,1.906,1.906,0,0,1,1.587.868h.019V59.365c0-.3-.1-.445-.415-.445h-.634v-.666h2.242v5.588c0,.3.091.444.4.444h.525v.668H111.16Zm-1.212.191c.677,0,1.212-.564,1.212-1.788,0-1.1-.535-1.667-1.212-1.667s-1.04.565-1.04,1.727S109.272,64.315,109.948,64.315Z" transform="translate(1463.986 6986.661)" fill="#fff"/>
      <path id="Path_734" data-name="Path 734" d="M125.433,64.721v-.668h.465c.283,0,.4-.11.4-.4V61.062c0-.292-.12-.4-.4-.4h-.465v-.668h2.06v3.658c0,.294.123.4.405.4h.5v.668Zm1.333-6.821a.727.727,0,1,1-.727.728A.73.73,0,0,1,126.766,57.9Z" transform="translate(1452.238 6986.893)" fill="#fff"/>
      <path id="Path_735" data-name="Path 735" d="M140.511,66.68v.3c0,1.132-.454,1.607-1.3,1.607a.909.909,0,0,1-1.02-.748,1.885,1.885,0,0,1-1.657.748c-.788,0-1.406-.374-1.406-1.284,0-1.959,3.032-1.01,3.032-2.435,0-.647-.544-.768-1.081-.768a1.31,1.31,0,0,0-.94.334c.374-.051.668.111.668.525,0,.454-.314.6-.708.6a.717.717,0,0,1-.727-.748c0-1.03,1.232-1.252,2.032-1.252,1.365,0,1.95.616,1.95,1.466V67.5c0,.222.092.334.242.334s.274-.141.274-.768V66.68Zm-2.355-.739-1.071.485c-.295.132-.605.293-.605.768,0,.425.191.636.605.636a1.119,1.119,0,0,0,1.071-1.233Z" transform="translate(1445.87 6983.176)" fill="#fff"/>
    </g>
  </g>
</svg>
