<svg xmlns="http://www.w3.org/2000/svg" width="19.212" height="19.212" viewBox="0 0 19.212 19.212">
  <path id="Icon_awesome-phone" data-name="Icon awesome-phone" d="M14.119.7,11.143.017a.691.691,0,0,0-.787.4l-1.374,3.2a.685.685,0,0,0,.2.8L10.914,5.84a10.605,10.605,0,0,1-5.071,5.071L4.424,9.177a.686.686,0,0,0-.8-.2l-3.2,1.374a.7.7,0,0,0-.4.79L.7,14.119a.687.687,0,0,0,.67.532A13.276,13.276,0,0,0,14.651,1.373.686.686,0,0,0,14.119.7Z" transform="matrix(-0.391, 0.921, -0.921, -0.391, 19.211, 5.725)" fill="#009e94"/>
</svg>
