<svg xmlns="http://www.w3.org/2000/svg" xmlns:xlink="http://www.w3.org/1999/xlink" width="75.118" height="17.188" viewBox="0 0 75.118 17.188">
  <defs>
    <clipPath id="clip-path">
      <rect id="Rectangle_1636" data-name="Rectangle 1636" width="75.118" height="17.187" fill="#002852"/>
    </clipPath>
  </defs>
  <g id="Group_4503" data-name="Group 4503" transform="translate(0 0.001)">
    <path id="Path_12524" data-name="Path 12524" d="M0,0V16.956H5.689V11.617H9.47v5.339h5.689V7.324L3.772,4.059V0Z" fill="#002852"/>
    <g id="Group_4502" data-name="Group 4502" transform="translate(0 -0.001)">
      <g id="Group_4501" data-name="Group 4501" clip-path="url(#clip-path)">
        <path id="Path_12525" data-name="Path 12525" d="M257.415,54.69a5.076,5.076,0,0,0-8.253,1.585,4.872,4.872,0,0,0-.392,1.948,4.945,4.945,0,0,0,1.465,3.543,5.118,5.118,0,0,0,1.6,1.063,5.229,5.229,0,0,0,3.971,0,5.12,5.12,0,0,0,1.6-1.063,4.947,4.947,0,0,0,1.467-3.543,4.868,4.868,0,0,0-.392-1.948,5.1,5.1,0,0,0-1.073-1.585m-.965,4.754a2.727,2.727,0,0,1-.559.943,2.608,2.608,0,0,1-.884.613,3.209,3.209,0,0,1-2.365,0,2.6,2.6,0,0,1-.884-.613,2.712,2.712,0,0,1-.561-.943,3.8,3.8,0,0,1,0-2.444,2.715,2.715,0,0,1,.561-.943,2.6,2.6,0,0,1,.884-.613,3.2,3.2,0,0,1,2.365,0,2.607,2.607,0,0,1,.884.613,2.733,2.733,0,0,1,.559.943,3.8,3.8,0,0,1,0,2.444" transform="translate(-215.248 -46.034)" fill="#002852"/>
        <path id="Path_12526" data-name="Path 12526" d="M432.006,56.92v-1.8h-7.522V57h4.807l-4.98,5.832v1.819h7.966v-1.88h-5.288Z" transform="translate(-367.134 -47.692)" fill="#002852"/>
        <path id="Path_12527" data-name="Path 12527" d="M501.019,62.771l5.017-5.851v-1.8h-7.522V57h4.807l-4.98,5.832v1.819h7.966v-1.88Z" transform="translate(-431.189 -47.692)" fill="#002852"/>
        <path id="Path_12528" data-name="Path 12528" d="M174.97,33.584a4.345,4.345,0,0,0-4.25.558V30.13h-2.11v12.9h2.112V37.956c0-.965.278-2.583,2.133-2.583a2.322,2.322,0,0,1,2.308,2.583v5.069h2.109V37.262a3.759,3.759,0,0,0-2.3-3.679" transform="translate(-145.89 -26.07)" fill="#002852"/>
        <path id="Path_12529" data-name="Path 12529" d="M347.463,60.22a3.415,3.415,0,0,1-.123.883,2.414,2.414,0,0,1-.4.808,2.07,2.07,0,0,1-.71.594,2.742,2.742,0,0,1-2.19,0,2.07,2.07,0,0,1-.71-.594,2.4,2.4,0,0,1-.4-.808,3.434,3.434,0,0,1-.124-.883V55H340.72v5.43a3.924,3.924,0,0,0,2.688,4.042,5.093,5.093,0,0,0,3.485-.008,4.008,4.008,0,0,0,2.667-4.042v-5.4h-2.1Z" transform="translate(-294.808 -47.589)" fill="#002852"/>
      </g>
    </g>
  </g>
</svg>
