<svg xmlns="http://www.w3.org/2000/svg" width="24.323" height="24.334" viewBox="0 0 24.323 24.334">
  <path id="Icon_ionic-logo-pinterest" data-name="Icon ionic-logo-pinterest" d="M14.414,2.25A12.165,12.165,0,0,0,9.532,25.557a10.773,10.773,0,0,1,.212-2.791c.234-.988,1.564-6.631,1.564-6.631a4.644,4.644,0,0,1-.391-1.922c0-1.8,1.043-3.15,2.346-3.15a1.627,1.627,0,0,1,1.64,1.825,26.315,26.315,0,0,1-1.075,4.317,1.881,1.881,0,0,0,1.922,2.34c2.3,0,3.856-2.96,3.856-6.468,0-2.666-1.8-4.659-5.061-4.659a5.764,5.764,0,0,0-5.99,5.827,3.506,3.506,0,0,0,.8,2.384.6.6,0,0,1,.174.679c-.06.223-.19.76-.25.977a.418.418,0,0,1-.608.3c-1.7-.7-2.493-2.552-2.493-4.648,0-3.454,2.916-7.6,8.694-7.6,4.643,0,7.7,3.361,7.7,6.967,0,4.773-2.655,8.336-6.565,8.336a3.491,3.491,0,0,1-2.97-1.515s-.706,2.8-.858,3.345a10.111,10.111,0,0,1-1.222,2.607A12.166,12.166,0,1,0,14.414,2.25Z" transform="translate(-2.25 -2.25)" fill="#002852"/>
</svg>
