<svg xmlns="http://www.w3.org/2000/svg" width="20.335" height="19.427" viewBox="0 0 20.335 19.427">
  <path id="Icon_awesome-facebook" data-name="Icon awesome-facebook" d="M20.9,10.335A9.974,9.974,0,0,0,10.73.563,9.974,9.974,0,0,0,.563,10.335a9.9,9.9,0,0,0,8.579,9.654V13.16H6.558V10.335H9.141V8.182a3.517,3.517,0,0,1,3.84-3.8,16.261,16.261,0,0,1,2.276.191v2.4H13.975A1.441,1.441,0,0,0,12.319,8.5v1.834h2.82l-.451,2.825H12.319v6.829A9.9,9.9,0,0,0,20.9,10.335Z" transform="translate(-0.563 -0.563)" fill="#fff"/>
</svg>
