<svg xmlns="http://www.w3.org/2000/svg" width="18.7" height="17.915" viewBox="0 0 18.7 17.915">
  <g id="Icon_feather-instagram" data-name="Icon feather-instagram" transform="translate(1 1)">
    <path id="Path_25" data-name="Path 25" d="M7.175,3h8.35A4.08,4.08,0,0,1,19.7,6.979v7.957a4.08,4.08,0,0,1-4.175,3.979H7.175A4.08,4.08,0,0,1,3,14.936V6.979A4.08,4.08,0,0,1,7.175,3Z" transform="translate(-3 -3)" fill="none" stroke="#fff" stroke-linecap="round" stroke-linejoin="round" stroke-width="2"/>
    <path id="Path_26" data-name="Path 26" d="M18.709,14.785a3.34,3.34,0,1,1-2.814-2.814,3.34,3.34,0,0,1,2.814,2.814Z" transform="translate(-7.019 -7.351)" fill="none" stroke="#fff" stroke-linecap="round" stroke-linejoin="round" stroke-width="2"/>
    <path id="Path_27" data-name="Path 27" d="M26.25,9.75h0" transform="translate(-13.307 -6.169)" fill="none" stroke="#fff" stroke-linecap="round" stroke-linejoin="round" stroke-width="2"/>
  </g>
</svg>
