<?xml version="1.0" encoding="UTF-8"?>
<svg xmlns="http://www.w3.org/2000/svg" xmlns:xlink="http://www.w3.org/1999/xlink" id="Group_4500" data-name="Group 4500" width="82.42" height="14.358" viewBox="0 0 82.42 14.358">
  <defs>
    <clipPath id="clip-path">
      <rect id="Rectangle_1635" data-name="Rectangle 1635" width="82.42" height="14.358" transform="translate(0 0)" fill="#002852"></rect>
    </clipPath>
  </defs>
  <g id="Group_4499" data-name="Group 4499" transform="translate(0 0)" clip-path="url(#clip-path)">
    <path id="Path_12517" data-name="Path 12517" d="M205.958,9.379V13.94h-3.44V.064c.492,0,.993-.011,1.493,0,2.078.055,4.176-.037,6.23.216A4.336,4.336,0,0,1,213.974,5.1a4.371,4.371,0,0,1-4.35,4.273c-1.154.057-2.312.01-3.666.01M205.951,4.8c0,1.88,0,1.88,1.457,1.879,2.273,0,3.076-.5,3.06-1.9-.015-1.33-.793-1.822-2.9-1.814-1.806.007-1.606-.19-1.617,1.84" transform="translate(-153.827 -0.045)" fill="#002852"></path>
    <path id="Path_12518" data-name="Path 12518" d="M13.577,13.847a2.585,2.585,0,0,1-.4.13c-3.126.217-3.128.217-4.073-2.764C8.347,8.821,7.6,6.426,6.729,3.674c-.691,2.168-1.276,3.993-1.855,5.82-.374,1.181-.795,2.351-1.092,3.551a1.1,1.1,0,0,1-1.355.966C1.677,13.955.92,14,0,14,.82,11.722,1.588,9.59,2.354,7.457,3.138,5.275,3.946,3.1,4.685.9A1.14,1.14,0,0,1,5.977,0c2.6,0,2.591-.025,3.464,2.4,1.364,3.793,2.74,7.582,4.136,11.444" transform="translate(0 0)" fill="#002852"></path>
    <path id="Path_12519" data-name="Path 12519" d="M138.569,14.227h-3.074V.367h3.028V4.576a4.531,4.531,0,0,1,2.483-.735c1.683-.061,3.9,1.341,3.988,3.012.134,2.423.035,4.859.035,7.356h-3.1q0-2.187,0-4.386c0-.481.014-.962-.006-1.441-.038-.885-.364-1.576-1.347-1.695A1.629,1.629,0,0,0,138.7,8a5.755,5.755,0,0,0-.122,1.543c-.014,1.516-.005,3.032-.005,4.689" transform="translate(-102.918 -0.279)" fill="#002852"></path>
    <path id="Path_12520" data-name="Path 12520" d="M288.624,15.656a5.027,5.027,0,0,1,5.32,5.35,5.344,5.344,0,0,1-10.686-.158,5.053,5.053,0,0,1,5.366-5.192m2.109,4.943a5.985,5.985,0,0,0-.139-.91c-.281-1.041-.831-1.839-2.043-1.808s-1.723.838-1.959,1.9a5.932,5.932,0,0,0-.144.943c-.106,1.874.739,3.178,2.072,3.221,1.394.044,2.224-1.109,2.213-3.344" transform="translate(-215.154 -11.892)" fill="#002852"></path>
    <path id="Path_12521" data-name="Path 12521" d="M98.725,22.11c-.052,2.433-1.908,4.045-4.548,4.1a5.11,5.11,0,0,1-5.4-4.971A5.031,5.031,0,0,1,93.1,15.669c3.045-.366,5.108.953,5.6,3.75-.847,0-1.673.051-2.487-.029-.268-.026-.558-.352-.742-.609a1.707,1.707,0,0,0-3.037.1,4.073,4.073,0,0,0,.03,4.031c.628,1.137,2.421,1.323,2.883.231.507-1.2,1.326-1.024,2.211-1.036.355,0,.71,0,1.164,0" transform="translate(-67.421 -11.857)" fill="#002852"></path>
    <path id="Path_12522" data-name="Path 12522" d="M257.5,16.068c.028.391.054.746.084,1.165a8.8,8.8,0,0,1,1.512-1.154,7.6,7.6,0,0,1,1.784-.357v2.741c-2.726.4-3.184.931-3.192,3.65,0,1.231,0,2.463,0,3.761h-3.215V16.068Z" transform="translate(-193.294 -11.942)" fill="#002852"></path>
    <path id="Path_12523" data-name="Path 12523" d="M63.587,26.142H60.521V16.318h2.89l.188,1.132c.9-.883,1.812-1.649,3.233-1.313V18.7c-2.876.541-3.243.988-3.245,3.949,0,1.118,0,2.235,0,3.5" transform="translate(-45.97 -12.197)" fill="#002852"></path>
    <rect id="Rectangle_1632" data-name="Rectangle 1632" width="3.078" height="9.813" transform="translate(43.717 4.114)" fill="#002852"></rect>
    <rect id="Rectangle_1633" data-name="Rectangle 1633" width="3.064" height="2.45" transform="translate(43.722 0.063)" fill="#002852"></rect>
    <rect id="Rectangle_1634" data-name="Rectangle 1634" width="2.773" height="2.773" transform="translate(79.647 11.584)" fill="#002852"></rect>
  </g>
</svg>
