<?xml version="1.0" encoding="UTF-8"?>
<svg xmlns="http://www.w3.org/2000/svg" xmlns:xlink="http://www.w3.org/1999/xlink" id="Group_4473" data-name="Group 4473" width="187.843" height="148.277" viewBox="0 0 187.843 148.277">
  <defs>
    <clipPath id="clip-path">
      <rect id="Rectangle_1382" data-name="Rectangle 1382" width="187.843" height="148.277" fill="#fdfbf2"></rect>
    </clipPath>
  </defs>
  <g id="Group_4473-2" data-name="Group 4473" transform="translate(0 0)" clip-path="url(#clip-path)">
    <path id="Path_12066" data-name="Path 12066" d="M7.058,52.028v-.986c-2.6-.2-4.285.383-4.285,2.013,0,1.125.745,1.649,1.912,1.649,1.387,0,2.373-.946,2.373-2.675m.019,2.453-.543,1.148a4.61,4.61,0,0,1-2.656.682c-1.89,0-3.439-1.084-3.439-3.076,0-2.373,1.891-3.66,5.934-3.66h.685v-.262a10.978,10.978,0,0,0-.041-1.167c-.061-.863-.6-1.468-1.871-1.468-1.286,0-1.95.725-2.072,2.053H.862c.14-2.333,1.891-3.66,4.324-3.66,2.755,0,3.842,1.165,4.022,2.975.04.442.061,1.006.061,1.508v3.76a18.649,18.649,0,0,0,.2,2.715H7.278Z" transform="translate(0.262 26.865)" fill="#fdfbf2"></path>
    <path id="Path_12067" data-name="Path 12067" d="M18.033,45.2v1.73c-2.032-.142-3.3.9-3.3,3.538v5.549H12.523V45.345h2.211v1.81l.907-1.468a2.779,2.779,0,0,1,1.649-.6,2.075,2.075,0,0,1,.744.121" transform="translate(7.464 26.872)" fill="#fdfbf2"></path>
    <path id="Path_12068" data-name="Path 12068" d="M30.973,49.052H28.74c-.321-1.63-1.186-2.373-2.493-2.373-1.548,0-2.776,1.227-2.776,3.9,0,2.9,1.207,4.123,2.7,4.123a2.478,2.478,0,0,0,2.491-2.211h2.254a4.534,4.534,0,0,1-4.866,3.819c-2.795,0-4.906-1.768-4.906-5.57,0-3.639,2.372-5.671,5.168-5.671a4.35,4.35,0,0,1,4.665,3.982" transform="translate(12.6 26.864)" fill="#fdfbf2"></path>
    <path id="Path_12069" data-name="Path 12069" d="M42.776,51.482v6.012H40.564v-5.77c0-.5,0-.967-.04-1.508a2.014,2.014,0,0,0-2.252-2.053c-1.529.04-2.776,1.207-2.776,4.546v4.785H33.284V42.614H35.5v5.972l.723-1.227a4.025,4.025,0,0,1,2.7-.824c2.292,0,3.6,1.186,3.8,3.056.042.543.061,1.025.061,1.89" transform="translate(19.839 25.4)" fill="#fdfbf2"></path>
    <path id="Path_12070" data-name="Path 12070" d="M45.773,46.637h2.212V57.315H45.773Zm2.413-2.455a1.262,1.262,0,0,1-1.307,1.286,1.276,1.276,0,1,1,1.307-1.286" transform="translate(27.176 25.581)" fill="#fdfbf2"></path>
    <path id="Path_12071" data-name="Path 12071" d="M72.866,49.756h5.409c-.16-1.971-1.025-3.077-2.573-3.077-1.508,0-2.594,1.026-2.836,3.077M80.508,51.3H72.847c.18,2.554,1.347,3.4,2.795,3.4a2.431,2.431,0,0,0,2.514-2.132h2.231a4.534,4.534,0,0,1-4.825,3.741c-2.857,0-5.007-1.81-5.007-5.589,0-3.379,2.15-5.652,5.227-5.652,3.1,0,4.766,2.333,4.766,5.35a8.054,8.054,0,0,1-.04.884" transform="translate(42.054 26.864)" fill="#fdfbf2"></path>
    <path id="Path_12072" data-name="Path 12072" d="M92.255,49.052H90.022c-.321-1.63-1.186-2.373-2.493-2.373-1.548,0-2.776,1.227-2.776,3.9,0,2.9,1.207,4.123,2.7,4.123a2.478,2.478,0,0,0,2.491-2.211h2.254a4.534,4.534,0,0,1-4.866,3.819c-2.795,0-4.906-1.768-4.906-5.57,0-3.639,2.372-5.671,5.168-5.671a4.35,4.35,0,0,1,4.665,3.982" transform="translate(49.127 26.864)" fill="#fdfbf2"></path>
    <path id="Path_12073" data-name="Path 12073" d="M97.6,53.389c0,.362,0,.6.019.884.081,1.047.484,1.267,1.931,1.128v1.527a11.413,11.413,0,0,1-1.63.12c-1.668,0-2.392-.622-2.493-2.03-.021-.364-.021-.825-.021-1.428V47.8H93.9V46.252h1.508V43.7H97.6v2.554H99.69V47.8H97.6Z" transform="translate(55.968 26.046)" fill="#fdfbf2"></path>
    <path id="Path_12074" data-name="Path 12074" d="M111.42,48.408h-2.252a1.935,1.935,0,0,0-1.971-1.789c-1.045,0-1.548.583-1.548,1.387,0,.966.785,1.368,2.373,1.789,2.332.6,3.559,1.529,3.559,3.419,0,2.072-1.831,3.1-4.164,3.1-2.372,0-4.121-1.065-4.423-3.478h2.233a2.139,2.139,0,0,0,2.271,1.91c1.026,0,1.85-.444,1.85-1.368s-.725-1.427-2.533-1.909c-1.952-.5-3.4-1.328-3.4-3.2,0-1.99,1.567-3.2,3.941-3.2a3.7,3.7,0,0,1,4.062,3.337" transform="translate(61.389 26.865)" fill="#fdfbf2"></path>
    <path id="Path_12075" data-name="Path 12075" d="M64.18,47.558V41.985H59.445v5.573H53.87v4.735h5.575v5.575H64.18V52.294h5.573V47.558H64.18Z" transform="translate(32.109 25.025)" fill="#009e94"></path>
    <rect id="Rectangle_1380" data-name="Rectangle 1380" width="20.583" height="55.764" transform="translate(0 1.63)" fill="#fdfbf2"></rect>
    <path id="Path_12076" data-name="Path 12076" d="M78.51,15.723C77.114,7.221,70.123,0,57.663,0a24.785,24.785,0,0,0-9.777,1.759,13.21,13.21,0,0,0-5.42,4.2V17.076a7.523,7.523,0,0,1,6.229-2.866c5.474,0,8.269,3.492,8.968,9.433a83.886,83.886,0,0,1,.466,8.5V57.394H79.093V27.486a81.889,81.889,0,0,0-.583-11.763" transform="translate(25.311 0)" fill="#fdfbf2"></path>
    <path id="Path_12077" data-name="Path 12077" d="M52.251,15.723C50.855,7.221,43.865,0,31.4,0a24.785,24.785,0,0,0-9.777,1.759,13.22,13.22,0,0,0-5.42,4.2V17.076a7.525,7.525,0,0,1,6.229-2.866c5.474,0,8.269,3.492,8.968,9.433a83.886,83.886,0,0,1,.466,8.5V57.394H52.834V27.486a81.889,81.889,0,0,0-.583-11.763" transform="translate(9.66 0)" fill="#fdfbf2"></path>
    <rect id="Rectangle_1381" data-name="Rectangle 1381" width="20.583" height="55.764" transform="translate(83.44 92.513)" fill="#fdfbf2"></rect>
    <path id="Path_12078" data-name="Path 12078" d="M130.789,72.665c-1.4-8.5-8.386-15.723-20.848-15.723a24.785,24.785,0,0,0-9.777,1.759,13.22,13.22,0,0,0-5.42,4.2V74.018a7.525,7.525,0,0,1,6.229-2.866c5.474,0,8.269,3.492,8.968,9.433a83.889,83.889,0,0,1,.466,8.5v25.249h20.964V84.427a81.891,81.891,0,0,0-.583-11.763" transform="translate(56.472 33.94)" fill="#fdfbf2"></path>
    <path id="Path_12079" data-name="Path 12079" d="M104.53,72.665c-1.4-8.5-8.386-15.723-20.848-15.723A24.785,24.785,0,0,0,73.905,58.7a13.22,13.22,0,0,0-5.42,4.2V74.018a7.525,7.525,0,0,1,6.229-2.866c5.474,0,8.269,3.492,8.968,9.433a83.89,83.89,0,0,1,.466,8.5v25.249h20.964V84.427a81.888,81.888,0,0,0-.583-11.763" transform="translate(40.82 33.94)" fill="#fdfbf2"></path>
  </g>
</svg>
