<?xml version="1.0" encoding="UTF-8"?>
<svg xmlns="http://www.w3.org/2000/svg" width="18.702" height="18.702" viewBox="0 0 18.702 18.702">
  <g id="Group_4542" data-name="Group 4542" transform="translate(-1499.249 -48.582)">
    <path id="Icon_awesome-phone-alt" data-name="Icon awesome-phone-alt" d="M14.063,10.229,10.9,8.872a.679.679,0,0,0-.792.2L8.7,10.781a10.48,10.48,0,0,1-5.01-5.01l1.713-1.4a.677.677,0,0,0,.2-.792L4.244.411A.683.683,0,0,0,3.466.018L.526.7A.679.679,0,0,0,0,1.357,13.117,13.117,0,0,0,13.119,14.476a.679.679,0,0,0,.662-.526l.679-2.94A.687.687,0,0,0,14.063,10.229Z" transform="translate(1504.437 48.581) rotate(21)" fill="#fff"></path>
    <path id="Path_12546" data-name="Path 12546" d="M1499.258,51.65s2.513,4.312,5.463,4.9" transform="translate(3)" fill="none" stroke="#009e94" stroke-width="1"></path>
    <path id="Path_12547" data-name="Path 12547" d="M1499.258,51.65s2.513,4.312,5.463,4.9" transform="matrix(-0.454, -0.891, 0.891, -0.454, 2141.403, 1425.946)" fill="none" stroke="#009e94" stroke-width="1"></path>
  </g>
</svg>
