<?xml version="1.0" encoding="UTF-8"?>
<svg xmlns="http://www.w3.org/2000/svg" width="22.106" height="22.106" viewBox="0 0 22.106 22.106">
  <g id="Icon_feather-instagram" data-name="Icon feather-instagram" transform="translate(1 1)">
    <path id="Path_25" data-name="Path 25" d="M8.026,3H18.079a5.026,5.026,0,0,1,5.026,5.026V18.079a5.026,5.026,0,0,1-5.026,5.026H8.026A5.026,5.026,0,0,1,3,18.079V8.026A5.026,5.026,0,0,1,8.026,3Z" transform="translate(-3 -3)" fill="none" stroke="#002852" stroke-linecap="round" stroke-linejoin="round" stroke-width="2"></path>
    <path id="Path_26" data-name="Path 26" d="M20.064,15.366a4.021,4.021,0,1,1-3.388-3.388,4.021,4.021,0,0,1,3.388,3.388Z" transform="translate(-5.99 -5.947)" fill="none" stroke="#002852" stroke-linecap="round" stroke-linejoin="round" stroke-width="2"></path>
    <path id="Path_27" data-name="Path 27" d="M26.25,9.75h0" transform="translate(-10.668 -5.226)" fill="none" stroke="#002852" stroke-linecap="round" stroke-linejoin="round" stroke-width="2"></path>
  </g>
</svg>
