<?xml version="1.0" encoding="UTF-8"?>
<svg xmlns="http://www.w3.org/2000/svg" width="21.419" height="21.419" viewBox="0 0 21.419 21.419">
  <path id="Icon_metro-linkedin" data-name="Icon metro-linkedin" d="M20.392,1.928H6.168a3.608,3.608,0,0,0-3.6,3.6V19.749a3.608,3.608,0,0,0,3.6,3.6H20.392a3.608,3.608,0,0,0,3.6-3.6V5.526A3.608,3.608,0,0,0,20.392,1.928ZM10.6,19.331H7.925V9.96H10.6v9.371ZM9.264,8.621A1.339,1.339,0,1,1,10.6,7.283,1.339,1.339,0,0,1,9.264,8.621ZM19.974,19.331H17.3V13.976a1.339,1.339,0,0,0-2.677,0v5.355H11.941V9.96h2.677v1.662c.552-.759,1.4-1.662,2.343-1.662a3.193,3.193,0,0,1,3.012,3.347Z" transform="translate(-2.571 -1.928)" fill="#002852"></path>
</svg>
