<?xml version="1.0" encoding="UTF-8"?>
<svg xmlns="http://www.w3.org/2000/svg" width="17.791" height="17.791" viewBox="0 0 17.791 17.791">
  <path id="Icon_metro-linkedin" data-name="Icon metro-linkedin" d="M17.373,1.928H5.559A3,3,0,0,0,2.571,4.916V16.731a3,3,0,0,0,2.988,2.988H17.373a3,3,0,0,0,2.988-2.988V4.916A3,3,0,0,0,17.373,1.928ZM9.242,16.383H7.018V8.6H9.242v7.784ZM8.13,7.488A1.112,1.112,0,1,1,9.242,6.376,1.112,1.112,0,0,1,8.13,7.488Zm8.9,8.9H14.8V11.935a1.112,1.112,0,0,0-2.224,0v4.448H10.354V8.6h2.224V9.98c.459-.63,1.16-1.381,1.946-1.381a2.652,2.652,0,0,1,2.5,2.78Z" transform="translate(-2.571 -1.928)" fill="#fff"></path>
</svg>
