<?xml version="1.0" encoding="UTF-8"?>
<svg xmlns="http://www.w3.org/2000/svg" width="20.203" height="20.212" viewBox="0 0 20.203 20.212">
  <path id="Icon_ionic-logo-pinterest" data-name="Icon ionic-logo-pinterest" d="M12.354,2.25A10.1,10.1,0,0,0,8.3,21.609a8.948,8.948,0,0,1,.176-2.318c.194-.821,1.3-5.507,1.3-5.507a3.857,3.857,0,0,1-.325-1.6c0-1.5.866-2.616,1.949-2.616a1.352,1.352,0,0,1,1.362,1.516,21.858,21.858,0,0,1-.893,3.586,1.562,1.562,0,0,0,1.6,1.944c1.912,0,3.2-2.458,3.2-5.372,0-2.215-1.493-3.87-4.2-3.87a4.788,4.788,0,0,0-4.975,4.84,2.912,2.912,0,0,0,.668,1.98.494.494,0,0,1,.144.564c-.05.185-.158.631-.207.812a.347.347,0,0,1-.505.253c-1.412-.577-2.07-2.12-2.07-3.861,0-2.869,2.422-6.31,7.221-6.31,3.857,0,6.4,2.792,6.4,5.787,0,3.965-2.206,6.924-5.453,6.924A2.9,2.9,0,0,1,11.213,17.1s-.586,2.327-.713,2.779a8.4,8.4,0,0,1-1.015,2.165,10.105,10.105,0,1,0,2.869-19.8Z" transform="translate(-2.25 -2.25)" fill="#fff"></path>
</svg>
