<svg xmlns="http://www.w3.org/2000/svg" xmlns:xlink="http://www.w3.org/1999/xlink" width="68.46" height="11.926" viewBox="0 0 68.46 11.926">
  <defs>
    <clipPath id="clip-path">
      <rect id="Rectangle_1635" data-name="Rectangle 1635" width="68.46" height="11.926" transform="translate(0 0)" fill="#fff"/>
    </clipPath>
  </defs>
  <g id="Group_4499" data-name="Group 4499" clip-path="url(#clip-path)">
    <path id="Path_12517" data-name="Path 12517" d="M205.375,7.8v3.789h-2.857V.063c.409,0,.825-.009,1.24,0,1.726.045,3.468-.031,5.175.179a3.6,3.6,0,0,1,3.1,4,3.631,3.631,0,0,1-3.613,3.55c-.958.047-1.921.008-3.045.008M205.37,4c0,1.561,0,1.561,1.21,1.561,1.888,0,2.555-.416,2.541-1.582-.013-1.1-.659-1.513-2.409-1.507-1.5.006-1.334-.158-1.343,1.528" transform="translate(-162.074 -0.048)" fill="#fff"/>
    <path id="Path_12518" data-name="Path 12518" d="M11.277,11.5a2.147,2.147,0,0,1-.331.108c-2.6.18-2.6.18-3.383-2.3C6.933,7.327,6.31,5.338,5.589,3.051c-.574,1.8-1.06,3.317-1.541,4.834-.311.981-.66,1.953-.907,2.949a.915.915,0,0,1-1.125.8c-.623-.046-1.253-.01-2.017-.01C.681,9.736,1.319,7.966,1.956,6.194,2.606,4.382,3.278,2.576,3.891.751A.947.947,0,0,1,4.964,0C7.122,0,7.116-.021,7.842,2c1.133,3.151,2.276,6.3,3.436,9.506" transform="translate(0 0)" fill="#fff"/>
    <path id="Path_12519" data-name="Path 12519" d="M138.048,11.88h-2.553V.367h2.515v3.5a3.764,3.764,0,0,1,2.062-.61c1.4-.051,3.236,1.114,3.313,2.5.112,2.012.029,4.036.029,6.11h-2.575q0-1.817,0-3.643c0-.4.012-.8,0-1.2-.031-.736-.3-1.309-1.119-1.408A1.353,1.353,0,0,0,138.154,6.7a4.781,4.781,0,0,0-.1,1.282c-.012,1.259,0,2.518,0,3.894" transform="translate(-108.436 -0.294)" fill="#fff"/>
    <path id="Path_12520" data-name="Path 12520" d="M287.715,15.656a4.176,4.176,0,0,1,4.419,4.444,4.438,4.438,0,0,1-8.876-.131,4.2,4.2,0,0,1,4.457-4.312m1.752,4.106a4.976,4.976,0,0,0-.116-.755c-.234-.865-.69-1.527-1.7-1.5s-1.431.7-1.627,1.576a4.929,4.929,0,0,0-.12.784c-.088,1.557.614,2.64,1.721,2.675,1.158.037,1.848-.921,1.838-2.777" transform="translate(-226.69 -12.529)" fill="#fff"/>
    <path id="Path_12521" data-name="Path 12521" d="M97.037,21.009c-.044,2.021-1.585,3.36-3.778,3.409a4.245,4.245,0,0,1-4.484-4.129,4.179,4.179,0,0,1,3.591-4.629c2.529-.3,4.243.791,4.652,3.115-.7,0-1.39.042-2.066-.024-.222-.022-.463-.292-.617-.505a1.418,1.418,0,0,0-2.522.085,3.383,3.383,0,0,0,.025,3.348c.522.944,2.011,1.1,2.395.192.421-.995,1.1-.851,1.836-.861.295,0,.59,0,.967,0" transform="translate(-71.036 -12.492)" fill="#fff"/>
    <path id="Path_12522" data-name="Path 12522" d="M256.99,16.01c.024.325.045.62.07.968a7.312,7.312,0,0,1,1.256-.959,6.312,6.312,0,0,1,1.482-.3V18c-2.264.332-2.644.773-2.651,3.032,0,1.023,0,2.046,0,3.124h-2.67V16.01Z" transform="translate(-203.657 -12.582)" fill="#fff"/>
    <path id="Path_12523" data-name="Path 12523" d="M63.068,24.434H60.521v-8.16h2.4l.156.941a2.751,2.751,0,0,1,2.686-1.091v2.124c-2.389.449-2.694.821-2.7,3.28,0,.928,0,1.857,0,2.905" transform="translate(-48.435 -12.851)" fill="#fff"/>
    <rect id="Rectangle_1632" data-name="Rectangle 1632" width="2.557" height="8.151" transform="translate(36.312 3.417)" fill="#fff"/>
    <rect id="Rectangle_1633" data-name="Rectangle 1633" width="2.545" height="2.035" transform="translate(36.316 0.053)" fill="#fff"/>
    <rect id="Rectangle_1634" data-name="Rectangle 1634" width="2.303" height="2.303" transform="translate(66.157 9.622)" fill="#fff"/>
  </g>
</svg>
