<svg id="Group_4503" data-name="Group 4503" xmlns="http://www.w3.org/2000/svg" xmlns:xlink="http://www.w3.org/1999/xlink" width="62.394" height="14.276" viewBox="0 0 62.394 14.276">
  <defs>
    <clipPath id="clip-path">
      <rect id="Rectangle_1636" data-name="Rectangle 1636" width="62.394" height="14.276" fill="#fff"/>
    </clipPath>
  </defs>
  <path id="Path_12524" data-name="Path 12524" d="M0,0V14.084H4.726V9.65H7.866v4.435h4.726v-8L3.133,3.372V0Z" transform="translate(0 0.001)" fill="#fff"/>
  <g id="Group_4502" data-name="Group 4502" transform="translate(0 0)">
    <g id="Group_4501" data-name="Group 4501" clip-path="url(#clip-path)">
      <path id="Path_12525" data-name="Path 12525" d="M255.95,54.439a4.216,4.216,0,0,0-6.855,1.316,4.047,4.047,0,0,0-.326,1.618,4.107,4.107,0,0,0,1.217,2.943,4.252,4.252,0,0,0,1.332.883,4.344,4.344,0,0,0,3.3,0,4.253,4.253,0,0,0,1.332-.883,4.109,4.109,0,0,0,1.219-2.943,4.043,4.043,0,0,0-.326-1.618,4.24,4.24,0,0,0-.891-1.316m-.8,3.949a2.266,2.266,0,0,1-.464.783,2.166,2.166,0,0,1-.734.509,2.666,2.666,0,0,1-1.964,0,2.161,2.161,0,0,1-.734-.509,2.253,2.253,0,0,1-.466-.783,3.153,3.153,0,0,1,0-2.03,2.255,2.255,0,0,1,.466-.783,2.161,2.161,0,0,1,.734-.509,2.658,2.658,0,0,1,1.964,0,2.165,2.165,0,0,1,.734.509,2.269,2.269,0,0,1,.464.783,3.155,3.155,0,0,1,0,2.03" transform="translate(-220.925 -47.248)" fill="#fff"/>
      <path id="Path_12526" data-name="Path 12526" d="M430.7,56.615v-1.5h-6.248v1.561h3.992l-4.137,4.844v1.511h6.617V61.475h-4.392Z" transform="translate(-376.819 -48.95)" fill="#fff"/>
      <path id="Path_12527" data-name="Path 12527" d="M500.565,61.475l4.167-4.86v-1.5h-6.248v1.561h3.992l-4.137,4.844v1.511h6.617V61.475Z" transform="translate(-442.563 -48.95)" fill="#fff"/>
      <path id="Path_12528" data-name="Path 12528" d="M173.893,33a3.609,3.609,0,0,0-3.53.463V30.13H168.61V40.842h1.754V36.631c0-.8.231-2.146,1.772-2.146a1.928,1.928,0,0,1,1.917,2.146v4.211H175.8V36.054A3.123,3.123,0,0,0,173.893,33" transform="translate(-149.738 -26.758)" fill="#fff"/>
      <path id="Path_12529" data-name="Path 12529" d="M346.321,59.336a2.837,2.837,0,0,1-.1.733,2.005,2.005,0,0,1-.329.672,1.719,1.719,0,0,1-.59.494,2.277,2.277,0,0,1-1.819,0,1.719,1.719,0,0,1-.59-.494,1.994,1.994,0,0,1-.329-.672,2.851,2.851,0,0,1-.1-.733V55H340.72v4.511a3.259,3.259,0,0,0,2.233,3.358,4.231,4.231,0,0,0,2.894-.007,3.329,3.329,0,0,0,2.215-3.358V55.019h-1.742Z" transform="translate(-302.585 -48.844)" fill="#fff"/>
    </g>
  </g>
</svg>
