<svg xmlns="http://www.w3.org/2000/svg" width="15.946" height="15.647" viewBox="0 0 15.946 15.647">
  <g id="Group_4514" data-name="Group 4514" transform="translate(-288 -1151.984)">
    <path id="Icon_ionic-ios-arrow-forward" data-name="Icon ionic-ios-arrow-forward" d="M17.5,14.017,11.575,8.1a1.113,1.113,0,0,1,0-1.579,1.128,1.128,0,0,1,1.584,0l6.708,6.7a1.116,1.116,0,0,1,.033,1.542l-6.736,6.75a1.118,1.118,0,0,1-1.584-1.579Z" transform="translate(276.753 1145.788)" fill="#009e94"/>
    <path id="Icon_ionic-ios-arrow-forward-2" data-name="Icon ionic-ios-arrow-forward" d="M17.5,14.017,11.575,8.1a1.113,1.113,0,0,1,0-1.579,1.128,1.128,0,0,1,1.584,0l6.708,6.7a1.116,1.116,0,0,1,.033,1.542l-6.736,6.75a1.118,1.118,0,0,1-1.584-1.579Z" transform="translate(283.753 1145.788)" fill="#009e94"/>
  </g>
</svg>
