<svg xmlns="http://www.w3.org/2000/svg" width="35.524" height="35.516" viewBox="0 0 35.524 35.516">
  <path id="Icon_awesome-instagram" data-name="Icon awesome-instagram" d="M17.761,10.89A9.106,9.106,0,1,0,26.867,20,9.091,9.091,0,0,0,17.761,10.89Zm0,15.026A5.92,5.92,0,1,1,23.681,20,5.931,5.931,0,0,1,17.761,25.916Zm11.6-15.4a2.124,2.124,0,1,1-2.124-2.124A2.119,2.119,0,0,1,29.363,10.517Zm6.031,2.156c-.135-2.845-.785-5.365-2.869-7.442s-4.6-2.726-7.442-2.869c-2.932-.166-11.721-.166-14.653,0-2.837.135-5.357.785-7.442,2.861S.262,9.82.12,12.665C-.047,15.6-.047,24.386.12,27.318.254,30.164.9,32.684,2.988,34.76s4.6,2.726,7.442,2.869c2.932.166,11.721.166,14.653,0,2.845-.135,5.365-.785,7.442-2.869s2.726-4.6,2.869-7.442c.166-2.932.166-11.713,0-14.645ZM31.606,30.465a5.994,5.994,0,0,1-3.376,3.376c-2.338.927-7.885.713-10.469.713s-8.139.206-10.469-.713a5.994,5.994,0,0,1-3.376-3.376C2.988,28.127,3.2,22.579,3.2,20S3,11.857,3.916,9.527A5.994,5.994,0,0,1,7.292,6.151c2.338-.927,7.885-.713,10.469-.713s8.139-.206,10.469.713a5.994,5.994,0,0,1,3.376,3.376c.927,2.338.713,7.885.713,10.469S32.533,28.135,31.606,30.465Z" transform="translate(0.005 -2.238)" fill="#002852"/>
</svg>
