<svg xmlns="http://www.w3.org/2000/svg" width="29" height="29" viewBox="0 0 29 29">
  <g id="Group_4508" data-name="Group 4508" transform="translate(-1138.5 -2452.5)">
    <g id="Group_2237" data-name="Group 2237" transform="translate(1138 2452)">
      <circle id="Ellipse_1" data-name="Ellipse 1" cx="14.5" cy="14.5" r="14.5" transform="translate(0.5 0.5)" fill="#303a86"/>
      <path id="Path_462" data-name="Path 462" d="M410.933,210.892V215.2c0,.165,0,.165.161.166h2.5c.059,0,.087-.024.085-.084v-.124c0-.626-.008-1.254,0-1.88.013-.954-.04-1.909.03-2.862a3.079,3.079,0,0,1,.205-.948,1.262,1.262,0,0,1,.83-.769,2.057,2.057,0,0,1,1-.054,1.142,1.142,0,0,1,.843.618,2.454,2.454,0,0,1,.253,1.132c.01,1.577,0,3.153.005,4.73v.122c0,.115,0,.119.121.119h2.5c.122,0,.124,0,.125-.131.018-1.1-.021-2.2.027-3.3a11.314,11.314,0,0,0-.024-1.683c-.031-.289,0-.582-.033-.875a7.5,7.5,0,0,0-.114-.773,3.34,3.34,0,0,0-.653-1.453,2.558,2.558,0,0,0-1.019-.718,4.023,4.023,0,0,0-1.244-.241,3.365,3.365,0,0,0-.922.057,2.952,2.952,0,0,0-1.517.816,5.376,5.376,0,0,0-.38.478c-.026.033-.04.1-.1.074-.027-.015-.037-.078-.038-.12,0-.311,0-.621,0-.932,0-.128,0-.128-.124-.132h-2.3c-.232,0-.209-.022-.209.2Q410.933,208.764,410.933,210.892Zm-4.539.006v4.255c0,.231-.023.21.2.211h2.321c.242,0,.219.027.219-.213v-8.614c0-.1-.006-.1-.1-.105h-2.5c-.146,0-.146,0-.149.143V210.9Zm1.378-8.935a1.482,1.482,0,0,0-1.137.457,1.6,1.6,0,0,0,1.115,2.737,1.535,1.535,0,0,0,1.148-.477,1.469,1.469,0,0,0,.456-1.1,1.578,1.578,0,0,0-1.542-1.615h-.04Z" transform="translate(-398.401 -195.927)" fill="#fff"/>
    </g>
  </g>
</svg>
