<svg xmlns="http://www.w3.org/2000/svg" xmlns:xlink="http://www.w3.org/1999/xlink" width="129.053" height="68.612" viewBox="0 0 129.053 68.612">
  <defs>
    <clipPath id="clip-path">
      <rect id="Rectangle_1651" data-name="Rectangle 1651" width="129.053" height="68.612" fill="none"/>
    </clipPath>
  </defs>
  <g id="Group_4540" data-name="Group 4540" clip-path="url(#clip-path)">
    <path id="Path_12548" data-name="Path 12548" d="M4.957,47.858V47.12c-1.942-.151-3.208.287-3.208,1.507,0,.843.558,1.234,1.431,1.234a1.761,1.761,0,0,0,1.777-2M4.972,49.7l-.406.86a3.454,3.454,0,0,1-1.989.511A2.323,2.323,0,0,1,0,48.762c0-1.777,1.417-2.741,4.445-2.741h.512v-.2a8.6,8.6,0,0,0-.03-.874c-.045-.648-.452-1.1-1.4-1.1s-1.461.542-1.551,1.537H.316a2.914,2.914,0,0,1,3.239-2.742c2.065,0,2.878.874,3.013,2.229.03.332.045.754.045,1.131v2.817a13.94,13.94,0,0,0,.151,2.034H5.123Z" transform="translate(0 17.545)" fill="#0d284f"/>
    <path id="Path_12549" data-name="Path 12549" d="M14.363,42.747v1.3c-1.522-.106-2.471.677-2.471,2.652v4.157H10.236v-8h1.656v1.355l.679-1.1a2.077,2.077,0,0,1,1.235-.452,1.534,1.534,0,0,1,.558.09" transform="translate(4.211 17.55)" fill="#0d284f"/>
    <path id="Path_12550" data-name="Path 12550" d="M24.9,45.628H23.23c-.24-1.221-.888-1.778-1.867-1.778-1.16,0-2.079.92-2.079,2.923,0,2.169.9,3.088,2.018,3.088A1.857,1.857,0,0,0,23.169,48.2h1.688a3.4,3.4,0,0,1-3.646,2.862c-2.095,0-3.675-1.325-3.675-4.174,0-2.725,1.777-4.247,3.872-4.247A3.258,3.258,0,0,1,24.9,45.628" transform="translate(7.215 17.545)" fill="#0d284f"/>
    <path id="Path_12551" data-name="Path 12551" d="M34.934,47.209v4.5H33.277V47.389c0-.377,0-.723-.03-1.129a1.509,1.509,0,0,0-1.688-1.537c-1.145.03-2.079.9-2.079,3.4v3.585H27.823V40.565H29.48v4.474l.542-.919a3.011,3.011,0,0,1,2.02-.617,2.527,2.527,0,0,1,2.847,2.289c.03.406.045.768.045,1.416" transform="translate(11.447 16.689)" fill="#0d284f"/>
    <path id="Path_12552" data-name="Path 12552" d="M38.385,43.609h1.657v8H38.385Zm1.808-1.839a.946.946,0,0,1-.98.964.956.956,0,1,1,0-1.912.943.943,0,0,1,.98.948" transform="translate(15.737 16.794)" fill="#0d284f"/>
    <path id="Path_12553" data-name="Path 12553" d="M61.128,46.156H65.18c-.12-1.476-.768-2.3-1.928-2.3-1.129,0-1.944.769-2.124,2.3m5.725,1.16h-5.74c.135,1.912,1.011,2.546,2.095,2.546a1.821,1.821,0,0,0,1.883-1.6h1.673a3.4,3.4,0,0,1-3.615,2.8c-2.14,0-3.752-1.356-3.752-4.188,0-2.532,1.612-4.234,3.917-4.234s3.569,1.747,3.569,4.007a6.1,6.1,0,0,1-.03.663" transform="translate(24.437 17.545)" fill="#0d284f"/>
    <path id="Path_12554" data-name="Path 12554" d="M76.816,45.628H75.144c-.24-1.221-.888-1.778-1.867-1.778-1.16,0-2.079.92-2.079,2.923,0,2.169.9,3.088,2.018,3.088A1.857,1.857,0,0,0,75.083,48.2h1.688a3.4,3.4,0,0,1-3.646,2.862c-2.095,0-3.675-1.325-3.675-4.174,0-2.725,1.777-4.247,3.872-4.247a3.258,3.258,0,0,1,3.495,2.982" transform="translate(28.573 17.545)" fill="#0d284f"/>
    <path id="Path_12555" data-name="Path 12555" d="M81.944,48.743c0,.271,0,.453.014.663.061.783.363.948,1.447.844V51.4a8.626,8.626,0,0,1-1.221.09c-1.249,0-1.792-.467-1.867-1.522-.016-.272-.016-.618-.016-1.07V44.556H79.172V43.4H80.3V41.483h1.643V43.4h1.567v1.16H81.944Z" transform="translate(32.573 17.067)" fill="#0d284f"/>
    <path id="Path_12556" data-name="Path 12556" d="M93.189,45.147H91.5a1.451,1.451,0,0,0-1.478-1.341c-.783,0-1.159.436-1.159,1.04,0,.723.587,1.023,1.777,1.339,1.747.452,2.668,1.146,2.668,2.562,0,1.551-1.372,2.32-3.119,2.32-1.777,0-3.088-.8-3.314-2.607H88.55a1.6,1.6,0,0,0,1.7,1.431c.768,0,1.385-.332,1.385-1.025s-.542-1.068-1.9-1.43c-1.462-.378-2.546-1-2.546-2.4,0-1.49,1.174-2.4,2.953-2.4a2.773,2.773,0,0,1,3.043,2.5" transform="translate(35.743 17.545)" fill="#0d284f"/>
    <path id="Path_12557" data-name="Path 12557" d="M52.986,44.207V40.032H49.438v4.175H45.263v3.548h4.175v4.175h3.548V47.756h4.175V44.207H52.986Z" transform="translate(18.622 16.47)" fill="#469b93"/>
    <rect id="Rectangle_1650" data-name="Rectangle 1650" width="18.202" height="49.314" transform="translate(0 1.441)" fill="#469b93"/>
    <path id="Path_12558" data-name="Path 12558" d="M74.341,13.9C73.106,6.385,66.924,0,55.9,0a21.918,21.918,0,0,0-8.646,1.555,11.682,11.682,0,0,0-4.793,3.716V15.1a6.653,6.653,0,0,1,5.509-2.535c4.841,0,7.313,3.088,7.931,8.341a74.184,74.184,0,0,1,.412,7.519V50.755H74.856V24.306a72.416,72.416,0,0,0-.515-10.4" transform="translate(17.471 0)" fill="#469b93"/>
    <path id="Path_12559" data-name="Path 12559" d="M100.361,13.9C99.126,6.385,92.944,0,81.925,0a21.918,21.918,0,0,0-8.646,1.555,11.682,11.682,0,0,0-4.793,3.716V15.1a6.653,6.653,0,0,1,5.509-2.535c4.841,0,7.313,3.088,7.931,8.341a74.186,74.186,0,0,1,.412,7.519V50.755h18.539V24.306a72.416,72.416,0,0,0-.515-10.4" transform="translate(28.176 0)" fill="#469b93"/>
    <path id="Path_12560" data-name="Path 12560" d="M48.082,13.9C46.847,6.385,40.666,0,29.646,0A21.918,21.918,0,0,0,21,1.555a11.691,11.691,0,0,0-4.793,3.716V15.1a6.655,6.655,0,0,1,5.509-2.535c4.841,0,7.313,3.088,7.931,8.341a74.183,74.183,0,0,1,.412,7.519V50.755H48.6V24.306a72.416,72.416,0,0,0-.515-10.4" transform="translate(6.667 0)" fill="#469b93"/>
  </g>
</svg>
