<svg xmlns="http://www.w3.org/2000/svg" width="18.702" height="18.702" viewBox="0 0 18.702 18.702">
  <path id="Icon_awesome-phone-alt" data-name="Icon awesome-phone-alt" d="M14.063,10.229,10.9,8.872a.679.679,0,0,0-.792.2L8.7,10.781a10.48,10.48,0,0,1-5.01-5.01l1.713-1.4a.677.677,0,0,0,.2-.792L4.244.411A.683.683,0,0,0,3.466.018L.526.7A.679.679,0,0,0,0,1.357,13.117,13.117,0,0,0,13.119,14.476a.679.679,0,0,0,.662-.526l.679-2.94A.687.687,0,0,0,14.063,10.229Z" transform="translate(5.188 0) rotate(21)" fill="#fff"/>
</svg>
